<svg width="48" height="48" viewBox="0 0 48 48" fill="none" xmlns="http://www.w3.org/2000/svg">
<g clip-path="url(#clip0_2031_1621)">
<path d="M16.7721 31.1859L29.8938 18.0021L45.5992 33.6698C41.9288 42.1026 33.5499 48 23.8084 48C15.2811 48 7.79784 43.4812 3.60297 36.6984L13.254 27.6511L16.7721 31.1859Z" fill="#696FE6"/>
<path d="M18.6016 20.4019C20.2889 20.4019 21.6013 19.0895 21.6013 17.4021C21.6013 15.7147 20.2889 14.4023 18.6016 14.4023C16.9143 14.4023 15.6019 15.7147 15.6019 17.4021C15.6019 19.0895 17.008 20.4019 18.6016 20.4019Z" fill="#696FE6"/>
<path fill-rule="evenodd" clip-rule="evenodd" d="M0 24.0016C0 10.4214 10.4212 0 24.0011 0C37.5811 0 48 10.4214 48 24.0016C48 25.2381 47.9086 26.4537 47.7321 27.642L46.5388 27.4647C46.7066 26.3349 46.7936 25.1785 46.7936 24.0016C46.7936 11.0876 36.9147 1.20642 24.0011 1.20642C11.0874 1.20642 1.2064 11.0877 1.2064 24.0016C1.2064 25.1785 1.2934 26.3349 1.46124 27.4647L0.267939 27.642C0.0914141 26.4537 0 25.2381 0 24.0016Z" fill="#696FE6"/>
</g>
<defs>
<clipPath id="clip0_2031_1621">
<rect width="48" height="48" fill="white"/>
</clipPath>
</defs>
</svg>
